<svg xmlns="http://www.w3.org/2000/svg" width="1033.048" height="545.441" viewBox="0 0 1033.048 545.441">
  <g id="ps5_android" transform="translate(-576.351 -1533.57)">
    <g id="ps5" transform="translate(5080.613 3993)" opacity="0.5">
      <g id="矩形_709" data-name="矩形 709" transform="translate(-3822.451 -2302.515) rotate(-169)" fill="none" stroke="#747474" stroke-width="2">
        <rect width="16.338" height="31.716" rx="8.169" stroke="none"/>
        <rect x="1" y="1" width="14.338" height="29.716" rx="7.169" fill="none"/>
      </g>
      <g id="组_2441" data-name="组 2441" transform="translate(-4266.181 -2265.339)">
        <g id="联合_4" data-name="联合 4" transform="translate(0 0)" fill="none">
          <path d="M14.417,43.249A14.417,14.417,0,0,1,0,28.832V14.416A14.416,14.416,0,0,1,14.417,0h5.766a45.908,45.908,0,0,1,12.9,1.6v.016a6.424,6.424,0,0,1,1.908,1.1L51,17.627a4.805,4.805,0,0,1,0,7.034L34.99,39.57a6.726,6.726,0,0,1-1.082.715v0s-3.941,2.555-13.725,2.959Z" stroke="none"/>
          <path d="M 20.14086532592773 41.24892044067383 C 24.80922508239746 41.05281448364258 28.01346015930176 40.34320831298828 29.88089370727539 39.78157043457031 C 30.93789100646973 39.46366882324219 31.69590187072754 39.15653610229492 32.1795539855957 38.93523025512695 L 32.97627258300781 38.51581192016602 C 33.21530914306641 38.38997650146484 33.45320510864258 38.23455429077148 33.68427276611328 38.05330276489258 L 49.64156341552734 23.1966609954834 C 50.21791458129883 22.66012001037598 50.53532409667969 21.93097114562988 50.53532409667969 21.14352989196777 C 50.53532409667969 20.3560905456543 50.21791458129883 19.62693977355957 49.64148330688477 19.0903205871582 L 33.67662811279297 4.226640701293945 C 33.26186752319336 3.893383264541626 32.83610916137695 3.647604942321777 32.41030120849609 3.495700120925903 L 32.20436859130859 3.422235488891602 C 31.10647392272949 3.114427328109741 26.68115997314453 2.000000238418579 20.18254280090332 2.000000238418579 L 14.41659259796143 2.000000238418579 C 11.09989261627197 2.000000238418579 7.981782913208008 3.291410207748413 5.636652946472168 5.636340141296387 C 3.291522979736328 7.981280326843262 2.000002861022949 11.09918975830078 2.000002861022949 14.41573047637939 L 2.000002861022949 28.83232116699219 C 2.000002861022949 32.14894104003906 3.291542768478394 35.26702880859375 5.636713027954102 37.61220932006836 C 7.98188304901123 39.95737838745117 11.09997272491455 41.24892044067383 14.41659259796143 41.24892044067383 L 20.14086532592773 41.24892044067383 M 20.18254280090332 43.24892044067383 L 14.41659259796143 43.24892044067383 C 6.45447301864624 43.24892044067383 2.870483285732917e-06 36.79444885253906 2.870483285732917e-06 28.83232116699219 L 2.870483285732917e-06 14.41573047637939 C 2.870483285732917e-06 6.453600406646729 6.45447301864624 2.203369149356149e-07 14.41659259796143 2.203369149356149e-07 L 20.18254280090332 2.203369149356149e-07 C 28.14466285705566 2.203369149356149e-07 33.08196258544922 1.595880270004272 33.08196258544922 1.595880270004272 L 33.08230209350586 1.611980199813843 C 33.71822357177734 1.838840246200562 34.36176300048828 2.201450109481812 34.99010467529297 2.716900110244751 L 51.00431442260742 17.62652969360352 C 53.04566192626953 19.52688026428223 53.04566192626953 22.76017951965332 51.00431442260742 24.66053009033203 L 34.99010467529297 39.57015991210938 C 34.63429260253906 39.85649871826172 34.27202224731445 40.09389114379883 33.90793228149414 40.28556060791016 L 33.90801239013672 40.28982925415039 C 33.90801239013672 40.28982925415039 29.96717262268066 42.844970703125 20.18254280090332 43.24892044067383 Z" stroke="none" fill="#747474"/>
        </g>
        <g id="联合_5" data-name="联合 5" transform="translate(118.85 43.249) rotate(180)" fill="none">
          <path d="M14.417,0A14.417,14.417,0,0,0,0,14.417V28.833A14.416,14.416,0,0,0,14.417,43.249h5.766a45.907,45.907,0,0,0,12.9-1.6v-.016a6.424,6.424,0,0,0,1.908-1.1L51,25.622a4.805,4.805,0,0,0,0-7.034L34.99,3.679a6.726,6.726,0,0,0-1.082-.715v0S29.967.4,20.183,0Z" stroke="none"/>
          <path d="M 14.41658020019531 2 C 11.09996032714844 2 7.981880187988281 3.291538238525391 5.636711120605469 5.636707305908203 C 3.291538238525391 7.981887817382813 2 11.09997940063477 2 14.41659736633301 L 2 28.83318710327148 C 2 32.14972686767578 3.291519165039063 35.26763916015625 5.636650085449219 37.61257934570313 C 7.981769561767578 39.9575080871582 11.09988021850586 41.24891662597656 14.41658020019531 41.24891662597656 L 20.18252182006836 41.24891662597656 C 26.68342590332031 41.24891662597656 31.10957527160645 40.13368988037109 32.20326995849609 39.82706451416016 L 32.41027069091797 39.75321960449219 C 32.8360595703125 39.60131454467773 33.26185607910156 39.35551071166992 33.67657470703125 39.02229690551758 L 49.64151000976563 24.15852737426758 C 50.21786880493164 23.62197875976563 50.5352783203125 22.89281845092773 50.5352783203125 22.10537910461426 C 50.5352783203125 21.31794738769531 50.21786880493164 20.58879852294922 49.64144134521484 20.05217742919922 L 33.68428039550781 5.195644378662109 C 33.45317459106445 5.014366149902344 33.21524810791016 4.858913421630859 32.97625732421875 4.733108520507813 L 32.22409057617188 4.334190368652344 C 31.74297904968262 4.111576080322266 30.97089195251465 3.795181274414063 29.8808708190918 3.467350006103516 C 28.01343727111816 2.905708312988281 24.80920219421387 2.19610595703125 20.14084243774414 2 L 14.41658020019531 2 M 14.41658020019531 0 L 20.18252182006836 0 C 29.96714973449707 0.4039497375488281 33.90798950195313 2.959087371826172 33.90798950195313 2.959087371826172 L 33.90789794921875 2.963348388671875 C 34.27199935913086 3.155017852783203 34.63426208496094 3.392417907714844 34.99007034301758 3.678749084472656 L 51.00426864624023 18.58838844299316 C 53.04561996459961 20.48873901367188 53.04561996459961 23.7220287322998 51.00426864624023 25.62238883972168 L 34.99007034301758 40.53201675415039 C 34.36174011230469 41.04747009277344 33.71818923950195 41.41007995605469 33.08227920532227 41.63694000244141 L 33.08193206787109 41.65302658081055 C 33.08193206787109 41.65302658081055 28.14463996887207 43.24891662597656 20.18252182006836 43.24891662597656 L 14.41658020019531 43.24891662597656 C 6.454460144042969 43.24891662597656 0 36.79530715942383 0 28.83318710327148 L 0 14.41659736633301 C 0 6.4544677734375 6.454460144042969 0 14.41658020019531 0 Z" stroke="none" fill="#747474"/>
        </g>
      </g>
      <g id="组_2442" data-name="组 2442" transform="translate(-4185.13 -2303.14) rotate(90)">
        <g id="联合_4-2" data-name="联合 4" transform="translate(0 0)" fill="none">
          <path d="M14.417,43.249A14.417,14.417,0,0,1,0,28.832V14.416A14.416,14.416,0,0,1,14.417,0h5.766a45.908,45.908,0,0,1,12.9,1.6v.016a6.424,6.424,0,0,1,1.908,1.1L51,17.627a4.805,4.805,0,0,1,0,7.034L34.99,39.57a6.726,6.726,0,0,1-1.082.715v0s-3.941,2.555-13.725,2.959Z" stroke="none"/>
          <path d="M 20.14086532592773 41.24892044067383 C 24.80922508239746 41.05281448364258 28.01346015930176 40.34320831298828 29.88089370727539 39.78157043457031 C 30.93789100646973 39.46366882324219 31.69590187072754 39.15653610229492 32.1795539855957 38.93523025512695 L 32.97627258300781 38.51581192016602 C 33.21530914306641 38.38997650146484 33.45320510864258 38.23455429077148 33.68427276611328 38.05330276489258 L 49.64156341552734 23.1966609954834 C 50.21791458129883 22.66012001037598 50.53532409667969 21.93097114562988 50.53532409667969 21.14352989196777 C 50.53532409667969 20.3560905456543 50.21791458129883 19.62693977355957 49.64148330688477 19.0903205871582 L 33.67662811279297 4.226640701293945 C 33.26186752319336 3.893383264541626 32.83610916137695 3.647604942321777 32.41030120849609 3.495700120925903 L 32.20436859130859 3.422235488891602 C 31.10647392272949 3.114427328109741 26.68115997314453 2.000000238418579 20.18254280090332 2.000000238418579 L 14.41659259796143 2.000000238418579 C 11.09989261627197 2.000000238418579 7.981782913208008 3.291410207748413 5.636652946472168 5.636340141296387 C 3.291522979736328 7.981280326843262 2.000002861022949 11.09918975830078 2.000002861022949 14.41573047637939 L 2.000002861022949 28.83232116699219 C 2.000002861022949 32.14894104003906 3.291542768478394 35.26702880859375 5.636713027954102 37.61220932006836 C 7.98188304901123 39.95737838745117 11.09997272491455 41.24892044067383 14.41659259796143 41.24892044067383 L 20.14086532592773 41.24892044067383 M 20.18254280090332 43.24892044067383 L 14.41659259796143 43.24892044067383 C 6.45447301864624 43.24892044067383 2.870483285732917e-06 36.79444885253906 2.870483285732917e-06 28.83232116699219 L 2.870483285732917e-06 14.41573047637939 C 2.870483285732917e-06 6.453600406646729 6.45447301864624 2.203369149356149e-07 14.41659259796143 2.203369149356149e-07 L 20.18254280090332 2.203369149356149e-07 C 28.14466285705566 2.203369149356149e-07 33.08196258544922 1.595880270004272 33.08196258544922 1.595880270004272 L 33.08230209350586 1.611980199813843 C 33.71822357177734 1.838840246200562 34.36176300048828 2.201450109481812 34.99010467529297 2.716900110244751 L 51.00431442260742 17.62652969360352 C 53.04566192626953 19.52688026428223 53.04566192626953 22.76017951965332 51.00431442260742 24.66053009033203 L 34.99010467529297 39.57015991210938 C 34.63429260253906 39.85649871826172 34.27202224731445 40.09389114379883 33.90793228149414 40.28556060791016 L 33.90801239013672 40.28982925415039 C 33.90801239013672 40.28982925415039 29.96717262268066 42.844970703125 20.18254280090332 43.24892044067383 Z" stroke="none" fill="#747474"/>
        </g>
        <g id="联合_5-2" data-name="联合 5" transform="translate(118.85 43.249) rotate(180)" fill="none">
          <path d="M14.417,0A14.417,14.417,0,0,0,0,14.417V28.833A14.416,14.416,0,0,0,14.417,43.249h5.766a45.907,45.907,0,0,0,12.9-1.6v-.016a6.424,6.424,0,0,0,1.908-1.1L51,25.622a4.805,4.805,0,0,0,0-7.034L34.99,3.679a6.726,6.726,0,0,0-1.082-.715v0S29.967.4,20.183,0Z" stroke="none"/>
          <path d="M 14.41658020019531 2 C 11.09996032714844 2 7.981880187988281 3.291538238525391 5.636711120605469 5.636707305908203 C 3.291538238525391 7.981887817382813 2 11.09997940063477 2 14.41659736633301 L 2 28.83318710327148 C 2 32.14972686767578 3.291519165039063 35.26763916015625 5.636650085449219 37.61257934570313 C 7.981769561767578 39.9575080871582 11.09988021850586 41.24891662597656 14.41658020019531 41.24891662597656 L 20.18252182006836 41.24891662597656 C 26.68342590332031 41.24891662597656 31.10957527160645 40.13368988037109 32.20326995849609 39.82706451416016 L 32.41027069091797 39.75321960449219 C 32.8360595703125 39.60131454467773 33.26185607910156 39.35551071166992 33.67657470703125 39.02229690551758 L 49.64151000976563 24.15852737426758 C 50.21786880493164 23.62197875976563 50.5352783203125 22.89281845092773 50.5352783203125 22.10537910461426 C 50.5352783203125 21.31794738769531 50.21786880493164 20.58879852294922 49.64144134521484 20.05217742919922 L 33.68428039550781 5.195644378662109 C 33.45317459106445 5.014366149902344 33.21524810791016 4.858913421630859 32.97625732421875 4.733108520507813 L 32.22409057617188 4.334190368652344 C 31.74297904968262 4.111576080322266 30.97089195251465 3.795181274414063 29.8808708190918 3.467350006103516 C 28.01343727111816 2.905708312988281 24.80920219421387 2.19610595703125 20.14084243774414 2 L 14.41658020019531 2 M 14.41658020019531 0 L 20.18252182006836 0 C 29.96714973449707 0.4039497375488281 33.90798950195313 2.959087371826172 33.90798950195313 2.959087371826172 L 33.90789794921875 2.963348388671875 C 34.27199935913086 3.155017852783203 34.63426208496094 3.392417907714844 34.99007034301758 3.678749084472656 L 51.00426864624023 18.58838844299316 C 53.04561996459961 20.48873901367188 53.04561996459961 23.7220287322998 51.00426864624023 25.62238883972168 L 34.99007034301758 40.53201675415039 C 34.36174011230469 41.04747009277344 33.71818923950195 41.41007995605469 33.08227920532227 41.63694000244141 L 33.08193206787109 41.65302658081055 C 33.08193206787109 41.65302658081055 28.14463996887207 43.24891662597656 20.18252182006836 43.24891662597656 L 14.41658020019531 43.24891662597656 C 6.454460144042969 43.24891662597656 0 36.79530715942383 0 28.83318710327148 L 0 14.41659736633301 C 0 6.4544677734375 6.454460144042969 0 14.41658020019531 0 Z" stroke="none" fill="#747474"/>
        </g>
      </g>
      <g id="椭圆_2157" data-name="椭圆 2157" transform="translate(-3797.17 -2318.199)" fill="none" stroke="#747474" stroke-width="3">
        <circle cx="23.547" cy="23.547" r="23.547" stroke="none"/>
        <circle cx="23.547" cy="23.547" r="22.047" fill="none"/>
      </g>
      <g id="椭圆_2159" data-name="椭圆 2159" transform="translate(-3797.17 -2216.324)" fill="none" stroke="#747474" stroke-width="3">
        <circle cx="23.547" cy="23.547" r="23.547" stroke="none"/>
        <circle cx="23.547" cy="23.547" r="22.047" fill="none"/>
      </g>
      <g id="椭圆_2160" data-name="椭圆 2160" transform="translate(-3848.108 -2267.261)" fill="none" stroke="#747474" stroke-width="3">
        <circle cx="23.547" cy="23.547" r="23.547" stroke="none"/>
        <circle cx="23.547" cy="23.547" r="22.047" fill="none"/>
      </g>
      <g id="椭圆_2158" data-name="椭圆 2158" transform="translate(-3746.233 -2267.261)" fill="none" stroke="#747474" stroke-width="3">
        <circle cx="23.547" cy="23.547" r="23.547" stroke="none"/>
        <circle cx="23.547" cy="23.547" r="22.047" fill="none"/>
      </g>
      <g id="椭圆_2150" data-name="椭圆 2150" transform="translate(-4125.861 -2173.597)" fill="none" stroke="#747474" stroke-width="2">
        <circle cx="24.027" cy="24.027" r="24.027" stroke="none"/>
        <circle cx="24.027" cy="24.027" r="23.027" fill="none"/>
      </g>
      <g id="椭圆_2165" data-name="椭圆 2165" transform="translate(-3901.929 -2173.597)" fill="none" stroke="#747474" stroke-width="2">
        <circle cx="24.027" cy="24.027" r="24.027" stroke="none"/>
        <circle cx="24.027" cy="24.027" r="23.027" fill="none"/>
      </g>
      <path id="路径_3247" data-name="路径 3247" d="M-3216.452-353.385s6.951,27.57,35.968,28.22l166.584.059s33.6,1.166,38.809-40.954l15.317-73.826s5.863-27.7-12.753-30.052c0,0-141.785-15.909-243.924.62,0,0-21.185,3.325-18.9,25.648S-3216.452-353.385-3216.452-353.385Z" transform="translate(-892.753 -1895.512)" fill="none" stroke="#747474" stroke-width="3"/>
      <path id="路径_3401" data-name="路径 3401" d="M-4253.283-2343.77v-7.495s8.824-18.28,62.5-24.088c0,0,24.055-1.7,29.441,4.767l2.447,10.625s85.859-12.324,181.714-12.017,156.115,11.932,156.115,11.932l1.711-10.791s11.248-8.049,39.775-3.574c0,0,42.791,6.014,52.16,22.514v8.25l8.061,1.529a6.147,6.147,0,0,1,3.883,2.5c1.158,2.016,59.255,119.619,67.216,211.79,0,0,26.982,176.05-39.458,203.84l-47.427,7.984s-7.231.686-12.909-12.3l-43.713-104.227s-23.518-66.014-75.351-44.089c0,0-6.623,1.636-25.033,1.12s-199.287,0-199.287,0-12.078,1.692-22.48-1.216c0,0-49.265-20.125-76.864,48.247l-43.739,100.165s-3.748,10.06-11.319,12.21l-47.568-7.89s-57.981-11.164-39.607-200.49c0,0,18.874-122.157,66.081-211.313,0,0,2.525-5.863,5.936-6.423S-4253.283-2343.77-4253.283-2343.77Z" transform="translate(0 0)" fill="none" stroke="#747474" stroke-width="4"/>
      <g id="椭圆_2190" data-name="椭圆 2190" transform="translate(-4148.857 -2196.681)" fill="none" stroke="#747474" stroke-width="4">
        <circle cx="47.453" cy="47.453" r="47.453" stroke="none"/>
        <circle cx="47.453" cy="47.453" r="45.453" fill="none"/>
      </g>
      <g id="椭圆_2210" data-name="椭圆 2210" transform="translate(-3924.937 -2196.681)" fill="none" stroke="#747474" stroke-width="4">
        <circle cx="47.453" cy="47.453" r="47.453" stroke="none"/>
        <circle cx="47.453" cy="47.453" r="45.453" fill="none"/>
      </g>
    </g>
    <g id="路径_4848" data-name="路径 4848" transform="translate(917.277 1659.352) rotate(-11)" fill="none" opacity="0.5">
      <path d="M8.169,0a8.169,8.169,0,0,1,8.169,8.169V23.547A8.169,8.169,0,0,1,0,23.547V8.169A8.169,8.169,0,0,1,8.169,0Z" stroke="none"/>
      <path d="M 8.16923999786377 1.999994277954102 C 4.767510414123535 1.999994277954102 2 4.767505645751953 2 8.169235229492188 L 2 23.54663467407227 C 2 26.94835472106934 4.767510414123535 29.71586418151855 8.16923999786377 29.71586418151855 C 11.57097053527832 29.71586418151855 14.33847999572754 26.94835472106934 14.33847999572754 23.54663467407227 L 14.33847999572754 8.169235229492188 C 14.33847999572754 4.767505645751953 11.57097053527832 1.999994277954102 8.16923999786377 1.999994277954102 M 8.16923999786377 -5.7220458984375e-06 C 12.68099021911621 -5.7220458984375e-06 16.33847999572754 3.657495498657227 16.33847999572754 8.169235229492188 L 16.33847999572754 23.54663467407227 C 16.33847999572754 28.05837440490723 12.68099021911621 31.71586418151855 8.16923999786377 31.71586418151855 C 3.657489776611328 31.71586418151855 0 28.05837440490723 0 23.54663467407227 L 0 8.169235229492188 C 0 3.657495498657227 3.657489776611328 -5.7220458984375e-06 8.16923999786377 -5.7220458984375e-06 Z" stroke="none" fill="#747474"/>
    </g>
    <path id="路径_4884" data-name="路径 4884" d="M19.876,0A19.876,19.876,0,1,1,0,19.876,19.876,19.876,0,0,1,19.876,0Z" transform="translate(1071.017 1818.607)" fill="none" stroke="#747474" stroke-width="2" opacity="0.5"/>
    <path id="路径_4923" data-name="路径 4923" d="M2.28,0H9.7a.481.481,0,0,0,.48-.48V-1.8a.481.481,0,0,0-.48-.48H4.32a.227.227,0,0,1-.24-.24v-13.8a.481.481,0,0,0-.48-.48H2.28a.481.481,0,0,0-.48.48V-.48A.481.481,0,0,0,2.28,0ZM16.56.24A4.956,4.956,0,0,0,21.6-4.824a4.2,4.2,0,0,0-1.9-3.72c-.216-.144-.216-.36.024-.576a4.231,4.231,0,0,0,1.512-3.288,4.371,4.371,0,0,0-4.632-4.632,4.422,4.422,0,0,0-4.728,4.392v.6a.481.481,0,0,0,.48.48h1.3a.481.481,0,0,0,.48-.48v-.36a2.356,2.356,0,0,1,2.472-2.472,2.228,2.228,0,0,1,2.352,2.472,2.352,2.352,0,0,1-2.4,2.52h-.48a.481.481,0,0,0-.48.48v1.272a.481.481,0,0,0,.48.48h.48a2.627,2.627,0,0,1,2.76,2.832,2.685,2.685,0,0,1-2.76,2.9,2.684,2.684,0,0,1-2.784-2.832V-4.92a.481.481,0,0,0-.48-.48h-1.32a.481.481,0,0,0-.48.48v.408A4.883,4.883,0,0,0,16.56.24Z" transform="translate(967.848 1975.454)" fill="#747474"/>
    <path id="路径_4925" data-name="路径 4925" d="M2.28,0H3.6a.481.481,0,0,0,.48-.48v-6a.227.227,0,0,1,.24-.24H5.784a.469.469,0,0,1,.456.288L9.12-.384A.621.621,0,0,0,9.7,0H11.16a.429.429,0,0,0,.48-.432.818.818,0,0,0-.1-.384L8.76-6.48a.885.885,0,0,1-.12-.408c0-.216.192-.384.5-.576a4.746,4.746,0,0,0,2.5-4.3A4.893,4.893,0,0,0,6.6-16.8H2.28a.481.481,0,0,0-.48.48V-.48A.481.481,0,0,0,2.28,0ZM4.32-9a.227.227,0,0,1-.24-.24v-5.04a.227.227,0,0,1,.24-.24H6.6a2.6,2.6,0,0,1,2.688,2.76A2.6,2.6,0,0,1,6.6-9ZM18.624.24a4.956,4.956,0,0,0,5.04-5.064,4.2,4.2,0,0,0-1.9-3.72c-.216-.144-.216-.36.024-.576A4.231,4.231,0,0,0,23.3-12.408a4.371,4.371,0,0,0-4.632-4.632,4.422,4.422,0,0,0-4.728,4.392v.6a.481.481,0,0,0,.48.48h1.3a.481.481,0,0,0,.48-.48v-.36a2.356,2.356,0,0,1,2.472-2.472,2.228,2.228,0,0,1,2.352,2.472,2.352,2.352,0,0,1-2.4,2.52h-.48a.481.481,0,0,0-.48.48v1.272a.481.481,0,0,0,.48.48h.48a2.627,2.627,0,0,1,2.76,2.832,2.685,2.685,0,0,1-2.76,2.9A2.684,2.684,0,0,1,15.84-4.752V-4.92a.481.481,0,0,0-.48-.48H14.04a.481.481,0,0,0-.48.48v.408A4.883,4.883,0,0,0,18.624.24Z" transform="translate(1191.154 1975.454)" fill="#747474"/>
    <path id="路径_4928" data-name="路径 4928" d="M2.28,0H3.6a.481.481,0,0,0,.48-.48V-7.2a.227.227,0,0,1,.24-.24H9.36a.227.227,0,0,1,.24.24V-.48a.481.481,0,0,0,.48.48H11.4a.481.481,0,0,0,.48-.48V-16.32a.481.481,0,0,0-.48-.48H10.08a.481.481,0,0,0-.48.48v6.36a.227.227,0,0,1-.24.24H4.32a.227.227,0,0,1-.24-.24v-6.36a.481.481,0,0,0-.48-.48H2.28a.481.481,0,0,0-.48.48V-.48A.481.481,0,0,0,2.28,0ZM20.448.24a5.084,5.084,0,0,0,4.8-2.856c.72-1.488.768-3.552.768-5.784s-.048-4.3-.768-5.784a5.084,5.084,0,0,0-4.8-2.856,5.084,5.084,0,0,0-4.8,2.856c-.72,1.488-.768,3.552-.768,5.784s.048,4.3.768,5.784A5.084,5.084,0,0,0,20.448.24Zm0-2.28A2.884,2.884,0,0,1,17.76-3.648c-.5-.96-.528-2.976-.528-4.752s.024-3.792.528-4.752a2.884,2.884,0,0,1,2.688-1.608,2.884,2.884,0,0,1,2.688,1.608c.5.96.528,2.976.528,4.752s-.024,3.792-.528,4.752A2.884,2.884,0,0,1,20.448-2.04ZM29.5,0h1.272a.481.481,0,0,0,.48-.48V-12.528a.11.11,0,0,1,.1-.12c.048,0,.072.048.1.1L34.872-.408a.471.471,0,0,0,.5.408h1.008a.471.471,0,0,0,.5-.408L40.32-12.552c.024-.048.048-.1.1-.1a.11.11,0,0,1,.1.12V-.48a.481.481,0,0,0,.48.48h1.272a.481.481,0,0,0,.48-.48V-16.32a.481.481,0,0,0-.48-.48H39.816a.471.471,0,0,0-.5.408L36-4.32a.122.122,0,0,1-.12.1.122.122,0,0,1-.12-.1L32.448-16.392a.471.471,0,0,0-.5-.408H29.5a.481.481,0,0,0-.48.48V-.48A.481.481,0,0,0,29.5,0ZM46.824,0h7.8a.481.481,0,0,0,.48-.48V-1.8a.481.481,0,0,0-.48-.48h-5.76a.227.227,0,0,1-.24-.24V-7.2a.227.227,0,0,1,.24-.24h5.448a.481.481,0,0,0,.48-.48V-9.24a.481.481,0,0,0-.48-.48H48.864a.227.227,0,0,1-.24-.24v-4.32a.227.227,0,0,1,.24-.24h5.712a.481.481,0,0,0,.48-.48v-1.32a.481.481,0,0,0-.48-.48H46.824a.481.481,0,0,0-.48.48V-.48A.481.481,0,0,0,46.824,0Z" transform="translate(1063.154 1975.454)" fill="#747474"/>
    <path id="路径_4767" data-name="路径 4767" d="M2.28,0H3.6a.481.481,0,0,0,.48-.48v-6a.227.227,0,0,1,.24-.24H5.784a.469.469,0,0,1,.456.288L9.12-.384A.621.621,0,0,0,9.7,0H11.16a.429.429,0,0,0,.48-.432.818.818,0,0,0-.1-.384L8.76-6.48a.885.885,0,0,1-.12-.408c0-.216.192-.384.5-.576a4.746,4.746,0,0,0,2.5-4.3A4.893,4.893,0,0,0,6.6-16.8H2.28a.481.481,0,0,0-.48.48V-.48A.481.481,0,0,0,2.28,0ZM4.32-9a.227.227,0,0,1-.24-.24v-5.04a.227.227,0,0,1,.24-.24H6.6a2.6,2.6,0,0,1,2.688,2.76A2.6,2.6,0,0,1,6.6-9Zm9.72,9h8.688a.442.442,0,0,0,.48-.48V-1.656a.431.431,0,0,0-.48-.48H16.68c-.24,0-.336-.216-.168-.408l4.464-5.088A6.773,6.773,0,0,0,23.04-12.48a4.385,4.385,0,0,0-4.608-4.56,4.422,4.422,0,0,0-4.68,4.632v.6a.453.453,0,0,0,.48.48H15.48a.481.481,0,0,0,.48-.48v-.36a2.4,2.4,0,0,1,2.472-2.712c1.44,0,2.256.888,2.256,2.472a5.147,5.147,0,0,1-1.536,3.552L13.776-2.64a.8.8,0,0,0-.216.6V-.48A.481.481,0,0,0,14.04,0Z" transform="translate(1538.239 1550.61)" fill="#747474"/>
    <path id="路径_4807" data-name="路径 4807" d="M2.28,0H3.6a.481.481,0,0,0,.48-.48v-6a.227.227,0,0,1,.24-.24H5.784a.469.469,0,0,1,.456.288L9.12-.384A.621.621,0,0,0,9.7,0H11.16a.429.429,0,0,0,.48-.432.818.818,0,0,0-.1-.384L8.76-6.48a.885.885,0,0,1-.12-.408c0-.216.192-.384.5-.576a4.746,4.746,0,0,0,2.5-4.3A4.893,4.893,0,0,0,6.6-16.8H2.28a.481.481,0,0,0-.48.48V-.48A.481.481,0,0,0,2.28,0ZM4.32-9a.227.227,0,0,1-.24-.24v-5.04a.227.227,0,0,1,.24-.24H6.6a2.6,2.6,0,0,1,2.688,2.76A2.6,2.6,0,0,1,6.6-9ZM17.688,0H18.96a.481.481,0,0,0,.48-.48V-16.32a.481.481,0,0,0-.48-.48H17.472a.739.739,0,0,0-.48.216L13.344-13.1a1.084,1.084,0,0,0-.264.792v1.464a.3.3,0,0,0,.528.192l3.384-3.1a.125.125,0,0,1,.216.1V-.48A.481.481,0,0,0,17.688,0Z" transform="translate(1539.724 1618.942)" fill="#747474"/>
    <path id="路径_4851" data-name="路径 4851" d="M4.944,0H6.288a.481.481,0,0,0,.48-.48V-6.744l3.984-9.192a1.143,1.143,0,0,0,.12-.456.425.425,0,0,0-.432-.408H8.856a.45.45,0,0,0-.456.36L5.808-10.056c-.048.144-.1.216-.192.216s-.144-.072-.192-.216L2.832-16.44a.45.45,0,0,0-.456-.36H.792a.425.425,0,0,0-.432.408,1.143,1.143,0,0,0,.12.456L4.464-6.744V-.48A.481.481,0,0,0,4.944,0Z" transform="translate(1539.724 1686.942)" fill="#747474"/>
    <path id="路径_4854" data-name="路径 4854" d="M.792,0H2.424c.216,0,.312-.072.456-.36L5.76-6.168c.1-.192.144-.24.192-.24s.1.048.192.24L9.048-.36c.144.288.24.36.456.36h1.632a.416.416,0,0,0,.432-.432.758.758,0,0,0-.12-.384l-4.032-7.8a.861.861,0,0,1-.1-.264A.553.553,0,0,1,7.392-9.1l3.672-6.888a.885.885,0,0,0,.12-.408.426.426,0,0,0-.432-.408H9.216c-.216,0-.312.072-.456.36L6.12-11.328c-.048.1-.12.192-.168.192s-.12-.1-.168-.192L3.144-16.44c-.144-.288-.24-.36-.456-.36H1.152a.426.426,0,0,0-.432.408.9.9,0,0,0,.12.408L4.512-9.1a.553.553,0,0,1,.072.216.692.692,0,0,1-.1.264L.48-.816a.83.83,0,0,0-.12.408A.426.426,0,0,0,.792,0Z" transform="translate(1539.724 1823.942)" fill="#747474"/>
    <path id="路径_4885" data-name="路径 4885" d="M.768,0H2.16a.483.483,0,0,0,.456-.36L3.672-4.032a.461.461,0,0,1,.456-.336H8.112a.442.442,0,0,1,.456.336L9.624-.36A.483.483,0,0,0,10.08,0h1.392a.38.38,0,0,0,.408-.336,1.331,1.331,0,0,0-.072-.408L7.416-16.44a.462.462,0,0,0-.456-.36H5.28a.462.462,0,0,0-.456.36L.432-.744A1.331,1.331,0,0,0,.36-.336.38.38,0,0,0,.768,0ZM4.632-6.6c-.144,0-.24-.072-.192-.264L6-13.56c.024-.1.048-.144.1-.144h.048c.048,0,.072.048.1.144l1.56,6.7c.048.192-.048.264-.192.264Z" transform="translate(1539.724 1892.942)" fill="#747474"/>
    <path id="路径_4857" data-name="路径 4857" d="M2.28,0H6.72a4.79,4.79,0,0,0,5.04-4.9,5.024,5.024,0,0,0-1.7-3.672.314.314,0,0,1,0-.528,4.524,4.524,0,0,0,1.368-3.24A4.374,4.374,0,0,0,6.72-16.8H2.28a.481.481,0,0,0-.48.48V-.48A.481.481,0,0,0,2.28,0ZM4.272-9.888a.227.227,0,0,1-.24-.24V-14.28a.227.227,0,0,1,.24-.24H6.72a2.066,2.066,0,0,1,2.352,2.184A2.256,2.256,0,0,1,6.72-9.888Zm0,7.608a.227.227,0,0,1-.24-.24V-7.488a.215.215,0,0,1,.24-.24H6.72A2.718,2.718,0,0,1,9.408-4.9,2.537,2.537,0,0,1,6.72-2.28Z" transform="translate(1539.724 1755.942)" fill="#747474"/>
    <path id="路径_4769" data-name="路径 4769" d="M0,0H170.829" transform="translate(657.356 1542.98)" fill="none" stroke="#747474" stroke-linecap="round" stroke-width="2"/>
    <path id="路径_4809" data-name="路径 4809" d="M0,0H170.829" transform="translate(657.356 1611.312)" fill="none" stroke="#747474" stroke-linecap="round" stroke-width="2"/>
    <path id="路径_4860" data-name="路径 4860" d="M0,0H152.143" transform="translate(657.356 1747.975)" fill="none" stroke="#747474" stroke-linecap="round" stroke-width="2"/>
    <path id="路径_4888" data-name="路径 4888" d="M0,0H269.143" transform="translate(657.356 1848.975)" fill="none" stroke="#747474" stroke-linecap="round" stroke-width="2"/>
    <path id="路径_4770" data-name="路径 4770" d="M2.28,0H9.7a.481.481,0,0,0,.48-.48V-1.8a.481.481,0,0,0-.48-.48H4.32a.227.227,0,0,1-.24-.24v-13.8a.481.481,0,0,0-.48-.48H2.28a.481.481,0,0,0-.48.48V-.48A.481.481,0,0,0,2.28,0Zm9.7,0h8.688a.442.442,0,0,0,.48-.48V-1.656a.431.431,0,0,0-.48-.48H14.616c-.24,0-.336-.216-.168-.408l4.464-5.088a6.773,6.773,0,0,0,2.064-4.848,4.385,4.385,0,0,0-4.608-4.56,4.422,4.422,0,0,0-4.68,4.632v.6a.453.453,0,0,0,.48.48h1.248a.481.481,0,0,0,.48-.48v-.36a2.4,2.4,0,0,1,2.472-2.712c1.44,0,2.256.888,2.256,2.472a5.147,5.147,0,0,1-1.536,3.552L11.712-2.64a.8.8,0,0,0-.216.6V-.48A.481.481,0,0,0,11.976,0Z" transform="translate(615 1550.61)" fill="#747474"/>
    <path id="路径_4810" data-name="路径 4810" d="M2.28,0H9.7a.481.481,0,0,0,.48-.48V-1.8a.481.481,0,0,0-.48-.48H4.32a.227.227,0,0,1-.24-.24v-13.8a.481.481,0,0,0-.48-.48H2.28a.481.481,0,0,0-.48.48V-.48A.481.481,0,0,0,2.28,0ZM15.624,0H16.9a.481.481,0,0,0,.48-.48V-16.32a.481.481,0,0,0-.48-.48H15.408a.739.739,0,0,0-.48.216L11.28-13.1a1.084,1.084,0,0,0-.264.792v1.464a.3.3,0,0,0,.528.192l3.384-3.1a.125.125,0,0,1,.216.1V-.48A.481.481,0,0,0,15.624,0Z" transform="translate(618 1617.942)" fill="#747474"/>
    <path id="路径_3450" data-name="路径 3450" d="M10.148,0,38.3,32.427,68.6,67.446" transform="translate(1299.548 1748.682)" fill="none" stroke="#747474" stroke-linecap="round" stroke-width="2"/>
    <path id="路径_4861" data-name="路径 4861" d="M193.111,0H0" transform="translate(1329.53 1679.643)" fill="none" stroke="#747474" stroke-linecap="round" stroke-width="2"/>
    <path id="路径_4862" data-name="路径 4862" d="M136.663,0H0" transform="translate(1385.978 1747.975)" fill="none" stroke="#747474" stroke-linecap="round" stroke-width="2"/>
    <path id="路径_4863" data-name="路径 4863" d="M25.253,0H0" transform="translate(1283.481 1747.975)" fill="none" stroke="#747474" stroke-linecap="round" stroke-width="2"/>
    <path id="路径_4889" data-name="路径 4889" d="M155.974,0H0" transform="translate(1368.152 1816.306)" fill="none" stroke="#747474" stroke-linecap="round" stroke-width="2"/>
    <path id="路径_4890" data-name="路径 4890" d="M150.032,0H0" transform="translate(1374.095 1884.637)" fill="none" stroke="#747474" stroke-linecap="round" stroke-width="2"/>
    <path id="路径_4864" data-name="路径 4864" d="M0,10.4,8.913,0" transform="translate(1319.875 1679.643)" fill="none" stroke="#747474" stroke-linecap="round" stroke-width="2"/>
    <path id="路径_3451" data-name="路径 3451" d="M-2.008,0,60.533,72.034" transform="translate(1312.958 1812.558)" fill="none" stroke="#747474" stroke-linecap="round" stroke-width="2"/>
    <path id="路径_4773" data-name="路径 4773" d="M6.288.24c3.168,0,5.352-1.968,5.352-4.848a5.057,5.057,0,0,0-4.2-5.04c-2.808-.624-3.792-1.392-3.792-2.88,0-1.368,1.032-2.232,2.736-2.232s2.736.84,2.736,2.28v.312a.481.481,0,0,0,.48.48h1.32a.481.481,0,0,0,.48-.48v-.312c0-2.832-1.9-4.56-4.968-4.56-2.952,0-5.136,1.7-5.136,4.56,0,2.616,1.68,4.176,4.512,4.824,2.472.576,3.48,1.488,3.48,3.144,0,1.464-1.224,2.472-2.976,2.472C4.44-2.04,3.144-3.168,3.144-4.8v-.384a.481.481,0,0,0-.48-.48H1.32a.481.481,0,0,0-.48.48V-4.8C.84-1.752,3,.24,6.288.24ZM14.76,0h7.8a.481.481,0,0,0,.48-.48V-1.8a.481.481,0,0,0-.48-.48H16.8a.227.227,0,0,1-.24-.24V-7.2a.227.227,0,0,1,.24-.24h5.448a.481.481,0,0,0,.48-.48V-9.24a.481.481,0,0,0-.48-.48H16.8a.227.227,0,0,1-.24-.24v-4.32a.227.227,0,0,1,.24-.24h5.712a.481.481,0,0,0,.48-.48v-1.32a.481.481,0,0,0-.48-.48H14.76a.481.481,0,0,0-.48.48V-.48A.481.481,0,0,0,14.76,0ZM26.4,0h7.416a.481.481,0,0,0,.48-.48V-1.8a.481.481,0,0,0-.48-.48H28.44a.227.227,0,0,1-.24-.24v-13.8a.481.481,0,0,0-.48-.48H26.4a.481.481,0,0,0-.48.48V-.48A.481.481,0,0,0,26.4,0ZM36.936,0h7.8a.481.481,0,0,0,.48-.48V-1.8a.481.481,0,0,0-.48-.48h-5.76a.227.227,0,0,1-.24-.24V-7.2a.227.227,0,0,1,.24-.24h5.448a.481.481,0,0,0,.48-.48V-9.24a.481.481,0,0,0-.48-.48H38.976a.227.227,0,0,1-.24-.24v-4.32a.227.227,0,0,1,.24-.24h5.712a.481.481,0,0,0,.48-.48v-1.32a.481.481,0,0,0-.48-.48H36.936a.481.481,0,0,0-.48.48V-.48A.481.481,0,0,0,36.936,0ZM53.064.24a5.023,5.023,0,0,0,5.4-5.424.474.474,0,0,0-.48-.432H56.64a.481.481,0,0,0-.48.48,2.851,2.851,0,0,1-3.1,3.1,2.885,2.885,0,0,1-2.712-1.632,13.859,13.859,0,0,1-.5-4.728,13.859,13.859,0,0,1,.5-4.728,2.885,2.885,0,0,1,2.712-1.632,2.851,2.851,0,0,1,3.1,3.1.481.481,0,0,0,.48.48h1.344a.474.474,0,0,0,.48-.432,5.023,5.023,0,0,0-5.4-5.424,5.1,5.1,0,0,0-4.824,2.832C47.52-12.7,47.5-10.632,47.5-8.4s.024,4.3.744,5.808A5.1,5.1,0,0,0,53.064.24ZM63.648,0h1.32a.481.481,0,0,0,.48-.48v-13.8a.227.227,0,0,1,.24-.24h3.168a.481.481,0,0,0,.48-.48v-1.32a.481.481,0,0,0-.48-.48h-9.12a.481.481,0,0,0-.48.48V-15a.481.481,0,0,0,.48.48h3.192a.227.227,0,0,1,.24.24V-.48A.481.481,0,0,0,63.648,0Z" transform="translate(891.734 1553.576)" fill="#747474"/>
    <path id="路径_4775" data-name="路径 4775" d="M6.288.24c3.168,0,5.352-1.968,5.352-4.848a5.057,5.057,0,0,0-4.2-5.04c-2.808-.624-3.792-1.392-3.792-2.88,0-1.368,1.032-2.232,2.736-2.232s2.736.84,2.736,2.28v.312a.481.481,0,0,0,.48.48h1.32a.481.481,0,0,0,.48-.48v-.312c0-2.832-1.9-4.56-4.968-4.56-2.952,0-5.136,1.7-5.136,4.56,0,2.616,1.68,4.176,4.512,4.824,2.472.576,3.48,1.488,3.48,3.144,0,1.464-1.224,2.472-2.976,2.472C4.44-2.04,3.144-3.168,3.144-4.8v-.384a.481.481,0,0,0-.48-.48H1.32a.481.481,0,0,0-.48.48V-4.8C.84-1.752,3,.24,6.288.24ZM16.752,0h1.32a.481.481,0,0,0,.48-.48v-13.8a.227.227,0,0,1,.24-.24H21.96a.481.481,0,0,0,.48-.48v-1.32a.481.481,0,0,0-.48-.48H12.84a.481.481,0,0,0-.48.48V-15a.481.481,0,0,0,.48.48h3.192a.227.227,0,0,1,.24.24V-.48A.481.481,0,0,0,16.752,0Zm5.616,0H23.76a.483.483,0,0,0,.456-.36l1.056-3.672a.461.461,0,0,1,.456-.336h3.984a.442.442,0,0,1,.456.336L31.224-.36A.483.483,0,0,0,31.68,0h1.392a.38.38,0,0,0,.408-.336,1.331,1.331,0,0,0-.072-.408l-4.392-15.7a.462.462,0,0,0-.456-.36H26.88a.462.462,0,0,0-.456.36L22.032-.744a1.331,1.331,0,0,0-.072.408A.38.38,0,0,0,22.368,0Zm3.864-6.6c-.144,0-.24-.072-.192-.264l1.56-6.7c.024-.1.048-.144.1-.144h.048c.048,0,.072.048.1.144l1.56,6.7c.048.192-.048.264-.192.264ZM36.12,0h1.32a.481.481,0,0,0,.48-.48v-6a.227.227,0,0,1,.24-.24h1.464a.469.469,0,0,1,.456.288L42.96-.384A.621.621,0,0,0,43.536,0H45a.429.429,0,0,0,.48-.432.818.818,0,0,0-.1-.384L42.6-6.48a.885.885,0,0,1-.12-.408c0-.216.192-.384.5-.576a4.746,4.746,0,0,0,2.5-4.3,4.893,4.893,0,0,0-5.04-5.04H36.12a.481.481,0,0,0-.48.48V-.48A.481.481,0,0,0,36.12,0Zm2.04-9a.227.227,0,0,1-.24-.24v-5.04a.227.227,0,0,1,.24-.24h2.28a2.6,2.6,0,0,1,2.688,2.76A2.6,2.6,0,0,1,40.44-9ZM50.712,0h1.32a.481.481,0,0,0,.48-.48v-13.8a.227.227,0,0,1,.24-.24H55.92A.481.481,0,0,0,56.4-15v-1.32a.481.481,0,0,0-.48-.48H46.8a.481.481,0,0,0-.48.48V-15a.481.481,0,0,0,.48.48h3.192a.227.227,0,0,1,.24.24V-.48A.481.481,0,0,0,50.712,0Z" transform="translate(1226.734 1553.576)" fill="#747474"/>
    <path id="路径_4815" data-name="路径 4815" d="M13.369,14.855,0,0" transform="translate(828.185 1611.312)" fill="none" stroke="#747474" stroke-linecap="round" stroke-width="2"/>
    <path id="路径_4777" data-name="路径 4777" d="M0,0,62.39,71.3" transform="translate(828.928 1543.723)" fill="none" stroke="#747474" stroke-linecap="round" stroke-width="2"/>
    <path id="路径_4778" data-name="路径 4778" d="M170.829,0H0" transform="translate(1351.813 1542.98)" fill="none" stroke="#747474" stroke-linecap="round" stroke-width="2"/>
    <path id="路径_4816" data-name="路径 4816" d="M170.829,0H0" transform="translate(1351.813 1611.312)" fill="none" stroke="#747474" stroke-linecap="round" stroke-width="2"/>
    <path id="路径_4817" data-name="路径 4817" d="M0,14.855,13.369,0" transform="translate(1338.443 1611.312)" fill="none" stroke="#747474" stroke-linecap="round" stroke-width="2"/>
    <path id="路径_4779" data-name="路径 4779" d="M62.39,0,0,71.3" transform="translate(1288.68 1543.723)" fill="none" stroke="#747474" stroke-linecap="round" stroke-width="2"/>
    <path id="路径_4891" data-name="路径 4891" d="M0,0V96.555" transform="translate(979.217 1846.016)" fill="none" stroke="#747474" stroke-linecap="round" stroke-width="2"/>
    <path id="路径_4818" data-name="路径 4818" d="M0,0V96.555" transform="translate(927.217 1570.016)" fill="none" stroke="#747474" stroke-linecap="round" stroke-width="2"/>
    <path id="路径_4819" data-name="路径 4819" d="M0,0V96.555" transform="translate(1254.217 1570.016)" fill="none" stroke="#747474" stroke-linecap="round" stroke-width="2"/>
    <path id="路径_4892" data-name="路径 4892" d="M0,0V78.73" transform="translate(1091.142 1865.326)" fill="none" stroke="#747474" stroke-linecap="round" stroke-width="2"/>
    <path id="路径_4893" data-name="路径 4893" d="M0,0V98.041" transform="translate(1203.523 1846.016)" fill="none" stroke="#747474" stroke-linecap="round" stroke-width="2"/>
    <path id="路径_4933" data-name="路径 4933" d="M176.627,0H0" transform="translate(1347.5 1952.638)" fill="none" stroke="#747474" stroke-linecap="round" stroke-width="2"/>
    <path id="路径_3452" data-name="路径 3452" d="M-2.008,0,89.173,104.784" transform="translate(1257.958 1848.558)" fill="none" stroke="#747474" stroke-linecap="round" stroke-width="2"/>
    <path id="路径_4879" data-name="路径 4879" d="M2.28,0H6.72a4.976,4.976,0,0,0,4.656-2.76c.624-1.3.672-3.408.672-5.64s-.048-4.344-.672-5.64A4.976,4.976,0,0,0,6.72-16.8H2.28a.481.481,0,0,0-.48.48V-.48A.481.481,0,0,0,2.28,0ZM4.32-2.28a.227.227,0,0,1-.24-.24V-14.28a.227.227,0,0,1,.24-.24h2.4a2.861,2.861,0,0,1,2.5,1.464c.456.864.48,2.88.48,4.656s-.024,3.792-.48,4.656A2.861,2.861,0,0,1,6.72-2.28ZM15.048-5.544H20.88a.481.481,0,0,0,.48-.48v-1.2a.481.481,0,0,0-.48-.48H15.048a.481.481,0,0,0-.48.48v1.2A.481.481,0,0,0,15.048-5.544Zm14.112-6.7c-1.944,0-2.3.912-2.808.912-.192,0-.336-.12-.48-.5-.048-.12-.144-.168-.336-.168H24.72a.481.481,0,0,0-.48.48V4.32a.481.481,0,0,0,.48.48h1.2a.481.481,0,0,0,.48-.48V.24c0-.552.12-.768.432-.768.432,0,.936.768,2.52.768A4.051,4.051,0,0,0,33.024-1.8,8.5,8.5,0,0,0,33.792-6a9.5,9.5,0,0,0-.744-4.176A4.115,4.115,0,0,0,29.16-12.24Zm-.216,2.16a2.423,2.423,0,0,1,2.256,1.1A6.036,6.036,0,0,1,31.632-6,6.328,6.328,0,0,1,31.2-3.024a2.4,2.4,0,0,1-2.256,1.1,2.423,2.423,0,0,1-2.256-1.1A6.036,6.036,0,0,1,26.256-6a6.036,6.036,0,0,1,.432-2.976A2.423,2.423,0,0,1,28.944-10.08ZM40.248.24c1.776,0,2.376-.912,2.808-.912.24,0,.36.288.48.5A.363.363,0,0,0,43.872,0h.816a.481.481,0,0,0,.48-.48V-8.4c0-2.52-1.512-3.84-4.368-3.84-2.76,0-4.368,1.272-4.368,3.432a.431.431,0,0,0,.48.48h1.1c.384,0,.552-.12.552-.408,0-1.032.816-1.608,2.208-1.608,1.44,0,2.232.648,2.232,1.872v.984a.227.227,0,0,1-.24.24H40.2c-2.736,0-4.32,1.272-4.32,3.672C35.88-1.272,37.608.24,40.248.24Zm.168-1.992c-1.512,0-2.3-.648-2.3-1.872,0-1.128.744-1.656,2.328-1.656h2.52a.227.227,0,0,1,.24.24v.768C43.2-2.568,42.312-1.752,40.416-1.752ZM52.368.24c1.944,0,2.3-.912,2.808-.912.192,0,.312.12.48.5.048.12.144.168.336.168h.816a.481.481,0,0,0,.48-.48V-16.56a.481.481,0,0,0-.48-.48h-1.2a.481.481,0,0,0-.48.48v4.32c0,.552-.12.768-.432.768-.432,0-.936-.768-2.52-.768A4.051,4.051,0,0,0,48.5-10.2,8.784,8.784,0,0,0,47.736-6a9.5,9.5,0,0,0,.744,4.176A4.236,4.236,0,0,0,52.368.24Zm.216-2.16a2.423,2.423,0,0,1-2.256-1.1A6.036,6.036,0,0,1,49.9-6a6.328,6.328,0,0,1,.432-2.976,2.4,2.4,0,0,1,2.256-1.1,2.423,2.423,0,0,1,2.256,1.1A6.036,6.036,0,0,1,55.272-6a6.036,6.036,0,0,1-.432,2.976A2.423,2.423,0,0,1,52.584-1.92Z" transform="translate(582.734 1754.576)" fill="#747474"/>
    <path id="路径_4904" data-name="路径 4904" d="M-65.9,0h7.416a.481.481,0,0,0,.48-.48V-1.8a.481.481,0,0,0-.48-.48h-5.376a.227.227,0,0,1-.24-.24v-13.8a.481.481,0,0,0-.48-.48H-65.9a.481.481,0,0,0-.48.48V-.48A.481.481,0,0,0-65.9,0Zm8.856-5.544h5.832a.481.481,0,0,0,.48-.48v-1.2a.481.481,0,0,0-.48-.48h-5.832a.481.481,0,0,0-.48.48v1.2A.481.481,0,0,0-57.048-5.544ZM-43.128.24c3.168,0,5.352-1.968,5.352-4.848a5.057,5.057,0,0,0-4.2-5.04c-2.808-.624-3.792-1.392-3.792-2.88,0-1.368,1.032-2.232,2.736-2.232s2.736.84,2.736,2.28v.312a.481.481,0,0,0,.48.48h1.32a.481.481,0,0,0,.48-.48v-.312c0-2.832-1.9-4.56-4.968-4.56-2.952,0-5.136,1.7-5.136,4.56,0,2.616,1.68,4.176,4.512,4.824,2.472.576,3.48,1.488,3.48,3.144,0,1.464-1.224,2.472-2.976,2.472-1.872,0-3.168-1.128-3.168-2.76v-.384a.481.481,0,0,0-.48-.48H-48.1a.481.481,0,0,0-.48.48V-4.8C-48.576-1.752-46.416.24-43.128.24ZM-30.1,0h1.32a.481.481,0,0,0,.48-.48v-1.2a.481.481,0,0,0-.48-.48H-30.1c-1.3,0-1.92-.528-1.92-1.68V-9.48a.227.227,0,0,1,.24-.24h2.76a.481.481,0,0,0,.48-.48v-1.2a.481.481,0,0,0-.48-.48h-2.76a.227.227,0,0,1-.24-.24v-3.72a.481.481,0,0,0-.48-.48h-1.2a.481.481,0,0,0-.48.48v3.72a.227.227,0,0,1-.24.24H-36.1a.481.481,0,0,0-.48.48v1.2a.481.481,0,0,0,.48.48h1.68a.227.227,0,0,1,.24.24v5.64C-34.176-1.3-32.808,0-30.1,0Zm4.128-14.616h1.632A.379.379,0,0,0-23.952-15v-1.656a.4.4,0,0,0-.384-.384h-1.632a.4.4,0,0,0-.384.384V-15A.379.379,0,0,0-25.968-14.616ZM-25.776,0h1.248a.481.481,0,0,0,.48-.48V-11.52a.481.481,0,0,0-.48-.48h-1.248a.481.481,0,0,0-.48.48V-.48A.481.481,0,0,0-25.776,0Zm9.456.24a4.867,4.867,0,0,0,3.048-.96,3.929,3.929,0,0,0,1.464-3.12c0-.312-.12-.48-.36-.48h-1.368c-.288,0-.456.144-.456.408a1.861,1.861,0,0,1-.648,1.464,2.75,2.75,0,0,1-1.68.528,2.7,2.7,0,0,1-2.208-.96,5.163,5.163,0,0,1-.6-3.12c0-1.68.12-2.52.624-3.192a2.7,2.7,0,0,1,2.16-.888,2.524,2.524,0,0,1,1.608.5,1.912,1.912,0,0,1,.72,1.512.415.415,0,0,0,.456.384h1.272a.426.426,0,0,0,.408-.48,4.06,4.06,0,0,0-1.32-3,4.71,4.71,0,0,0-3.144-1.08A5,5,0,0,0-19.9-10.92C-21.1-9.672-21.36-8.064-21.36-6c0,1.992.192,3.768,1.512,4.968A4.984,4.984,0,0,0-16.32.24ZM-.5-.84-5.112-6a.375.375,0,0,1,0-.576L-.648-11.16a.51.51,0,0,0,.168-.36.472.472,0,0,0-.5-.48H-2.4a1.047,1.047,0,0,0-.6.36L-6.84-7.632c-.1.1-.144.12-.192.12-.072,0-.12-.048-.12-.168v-8.88a.481.481,0,0,0-.48-.48h-1.2a.481.481,0,0,0-.48.48V-.48a.481.481,0,0,0,.48.48h1.2a.481.481,0,0,0,.48-.48v-4.2c0-.12.048-.168.12-.168.048,0,.1.024.192.12l3.768,4.3a.98.98,0,0,0,.7.432H-.84a.473.473,0,0,0,.5-.48A.464.464,0,0,0-.5-.84Z" transform="translate(642.734 1856.576)" fill="#747474"/>
    <path id="路径_4948" data-name="路径 4948" d="M-67.968,0h1.32a.481.481,0,0,0,.48-.48v-6a.227.227,0,0,1,.24-.24h1.464a.469.469,0,0,1,.456.288l2.88,6.048A.621.621,0,0,0-60.552,0h1.464a.429.429,0,0,0,.48-.432.818.818,0,0,0-.1-.384L-61.488-6.48a.885.885,0,0,1-.12-.408c0-.216.192-.384.5-.576a4.746,4.746,0,0,0,2.5-4.3,4.893,4.893,0,0,0-5.04-5.04h-4.32a.481.481,0,0,0-.48.48V-.48A.481.481,0,0,0-67.968,0Zm2.04-9a.227.227,0,0,1-.24-.24v-5.04a.227.227,0,0,1,.24-.24h2.28a2.6,2.6,0,0,1,2.688,2.76A2.6,2.6,0,0,1-63.648-9Zm8.88,3.456h5.832a.481.481,0,0,0,.48-.48v-1.2a.481.481,0,0,0-.48-.48h-5.832a.481.481,0,0,0-.48.48v1.2A.481.481,0,0,0-57.048-5.544ZM-43.128.24c3.168,0,5.352-1.968,5.352-4.848a5.057,5.057,0,0,0-4.2-5.04c-2.808-.624-3.792-1.392-3.792-2.88,0-1.368,1.032-2.232,2.736-2.232s2.736.84,2.736,2.28v.312a.481.481,0,0,0,.48.48h1.32a.481.481,0,0,0,.48-.48v-.312c0-2.832-1.9-4.56-4.968-4.56-2.952,0-5.136,1.7-5.136,4.56,0,2.616,1.68,4.176,4.512,4.824,2.472.576,3.48,1.488,3.48,3.144,0,1.464-1.224,2.472-2.976,2.472-1.872,0-3.168-1.128-3.168-2.76v-.384a.481.481,0,0,0-.48-.48H-48.1a.481.481,0,0,0-.48.48V-4.8C-48.576-1.752-46.416.24-43.128.24ZM-30.1,0h1.32a.481.481,0,0,0,.48-.48v-1.2a.481.481,0,0,0-.48-.48H-30.1c-1.3,0-1.92-.528-1.92-1.68V-9.48a.227.227,0,0,1,.24-.24h2.76a.481.481,0,0,0,.48-.48v-1.2a.481.481,0,0,0-.48-.48h-2.76a.227.227,0,0,1-.24-.24v-3.72a.481.481,0,0,0-.48-.48h-1.2a.481.481,0,0,0-.48.48v3.72a.227.227,0,0,1-.24.24H-36.1a.481.481,0,0,0-.48.48v1.2a.481.481,0,0,0,.48.48h1.68a.227.227,0,0,1,.24.24v5.64C-34.176-1.3-32.808,0-30.1,0Zm4.128-14.616h1.632A.379.379,0,0,0-23.952-15v-1.656a.4.4,0,0,0-.384-.384h-1.632a.4.4,0,0,0-.384.384V-15A.379.379,0,0,0-25.968-14.616ZM-25.776,0h1.248a.481.481,0,0,0,.48-.48V-11.52a.481.481,0,0,0-.48-.48h-1.248a.481.481,0,0,0-.48.48V-.48A.481.481,0,0,0-25.776,0Zm9.456.24a4.867,4.867,0,0,0,3.048-.96,3.929,3.929,0,0,0,1.464-3.12c0-.312-.12-.48-.36-.48h-1.368c-.288,0-.456.144-.456.408a1.861,1.861,0,0,1-.648,1.464,2.75,2.75,0,0,1-1.68.528,2.7,2.7,0,0,1-2.208-.96,5.163,5.163,0,0,1-.6-3.12c0-1.68.12-2.52.624-3.192a2.7,2.7,0,0,1,2.16-.888,2.524,2.524,0,0,1,1.608.5,1.912,1.912,0,0,1,.72,1.512.415.415,0,0,0,.456.384h1.272a.426.426,0,0,0,.408-.48,4.06,4.06,0,0,0-1.32-3,4.71,4.71,0,0,0-3.144-1.08A5,5,0,0,0-19.9-10.92C-21.1-9.672-21.36-8.064-21.36-6c0,1.992.192,3.768,1.512,4.968A4.984,4.984,0,0,0-16.32.24ZM-.5-.84-5.112-6a.375.375,0,0,1,0-.576L-.648-11.16a.51.51,0,0,0,.168-.36.472.472,0,0,0-.5-.48H-2.4a1.047,1.047,0,0,0-.6.36L-6.84-7.632c-.1.1-.144.12-.192.12-.072,0-.12-.048-.12-.168v-8.88a.481.481,0,0,0-.48-.48h-1.2a.481.481,0,0,0-.48.48V-.48a.481.481,0,0,0,.48.48h1.2a.481.481,0,0,0,.48-.48v-4.2c0-.12.048-.168.12-.168.048,0,.1.024.192.12l3.768,4.3a.98.98,0,0,0,.7.432H-.84a.473.473,0,0,0,.5-.48A.464.464,0,0,0-.5-.84Z" transform="translate(1609.734 1958.576)" fill="#747474"/>
  </g>
</svg>
